<?xml version="1.0" encoding="utf-8"?>
<!-- Generator: Adobe Illustrator 22.0.0, SVG Export Plug-In . SVG Version: 6.00 Build 0)  -->
<svg class="social-icon" version="1.1" id="Capa_1" xmlns="http://www.w3.org/2000/svg" xmlns:xlink="http://www.w3.org/1999/xlink" x="0px" y="0px"
	 viewBox="0 0 35.2 45.1" style="enable-background:new 0 0 35.2 45.1;" xml:space="preserve">
<style type="text/css">
	.er{fill:#EDA1A4;}
</style>
<g>
	<g>
		<path class="er" d="M3.2,21c-0.2,0.1-0.6,0.3-0.6,0.6c0,4.1,4.6,9,6.6,12.5c1.6,2.7,3.2,5.4,4.8,8.1c0.7,1.1,1.4,3,3,2.8
			c3.2-0.2,5.8-7.4,7-9.5c1.8-2.9,3.5-5.9,5.3-8.8c1-1.7,2.3-3.1,2.3-5.2c0-0.2-0.1-0.4-0.2-0.5c-2.1-1.2-4.7-0.8-7.1-0.8
			c-1.2-0.8-0.5-5.6-0.5-6.8c0-3.4,0-6.8,0-10.2c0-4.7-7.4-2.9-10.6-2.9c-4.6,0-2.8,8.6-2.8,11.3c0,2.8,0,5.5,0,8.3
			C10.5,20.1,4.3,20.3,3.2,21z M29,23.7c0.2-0.5,0.4-1,0.6-1.5c0.2,0.2,0.2,0.3,0.1,0.6c-0.1,0.1-0.1,0.2-0.2,0.3
			c-0.2,0.3-0.4,0.7-0.6,1C28.9,24.1,28.9,24,29,23.7z M6.6,26c-0.2-0.4-0.4-0.7-0.6-1.1c-0.2-0.3-0.4-0.7-0.6-0.9
			c0.5-0.7,0.9-1.4,1.4-2.1c0,0,0-0.1,0.1-0.1c0,0,0.1,0,0.1,0c0.9,0,1.7,0,2.4-0.1c-0.1,0.1-0.1,0.2-0.2,0.2
			c-0.8,1.3-1.6,2.6-2.4,3.8C6.8,25.8,6.7,25.9,6.6,26z M8.8,29.6c4.4-7.1,8.7-14.3,13.1-21.4c0,0.3,0,0.4,0,0.5c0,0.3,0,0.6,0,1
			C19,15.3,16.1,20.9,13,26.4c-1,1.8-2,3.5-3,5.3C9.6,31,9.2,30.3,8.8,29.6z M11.3,33.7c3.2-4.9,6.5-9.8,9.7-14.8
			c0.3-0.5,0.4-0.4,0.1,0.1c-0.5,1.1-1,2.1-1.5,3.1c-2.5,4.2-5.1,8.5-7.8,12.6C11.7,34.4,11.5,34.1,11.3,33.7z M24.7,29.9
			c-0.4,1-0.7,2.1-1.1,3.1c0,0.1-0.1,0.1-0.1,0.2c-0.9,1.5-1.8,3-2.6,4.4c-0.5,0.8-1.1,1.6-1.7,2.4c-0.3,0.5-0.4,0.4-0.1-0.1
			c1.4-2.6,2.7-5.2,4.2-7.8c0.4-0.8,0.9-1.6,1.3-2.3C24.8,29.4,24.9,29.4,24.7,29.9z M22.4,21.2c0-0.1,0.1-0.1,0.1-0.2
			c0.2,0.3,0.5,0.6,0.9,0.7c0.1,0.1,0.3,0.1,0.4,0.1c0,0,0,0,0,0c0.4,0,1.8-0.1,3.2-0.1c-0.1,0.1-0.1,0.1-0.2,0.2
			c-3.8,6.4-7.5,12.8-11.1,19.2c-0.1-0.1-0.1-0.2-0.1-0.3c-0.9-1.4-1.7-2.9-2.6-4.3c3.4-4.7,6.5-9.6,9.1-14.8
			C22.1,21.5,22.2,21.3,22.4,21.2z M22,4.6c0,0.1,0,0.1,0,0.2c0,0,0,0-0.1,0.1C21.5,5.6,21,6.3,20.6,7c-0.3,0.5-0.3,0.5,0,0
			C21,6.2,21.5,5.4,22,4.6C22,4.6,22,4.6,22,4.6z M20.8,1.9c0,0,0.1-0.1,0.1-0.1c0.2,0,0.4,0,0.6,0c0,0,0,0,0,0
			c-0.1,0.1-0.1,0.2-0.2,0.3c-2.7,5.1-5.8,9.9-8.9,14.7c0-0.2,0-0.4,0-0.6c0-0.9,0-1.8,0-2.7C15.1,9.5,17.9,5.7,20.8,1.9z M17.1,1.8
			c0.6,0,1.1,0,1.7,0c0,0-0.1,0.1-0.1,0.1c-1.4,1.8-2.8,3.7-4.2,5.6c-0.3,0.4-0.4,0.4-0.1-0.1c0.9-1.8,1.8-3.6,2.7-5.4
			C17.1,1.9,17.1,1.8,17.1,1.8z M13.6,1.8c0.5,0,1,0,1.5,0C15,1.8,15,1.9,14.9,2c-0.8,1.7-1.7,3.4-2.5,5.1c0-0.1,0-0.2,0-0.3
			C12.4,5.2,11.6,1.8,13.6,1.8z M11,22.2c2.5-4,5.1-8,7.6-12c0.3-0.5,0.3-0.5,0,0C15,16.1,11.4,22,7.8,27.9c0-0.1-0.1-0.1-0.1-0.2
			C8.8,25.9,9.9,24,11,22.2z"/>
	</g>
</g>
</svg>
