<?xml version="1.0" encoding="utf-8"?>
<!-- Generator: Adobe Illustrator 22.0.0, SVG Export Plug-In . SVG Version: 6.00 Build 0)  -->
<svg class="social-icon"version="1.1" id="github" xmlns="http://www.w3.org/2000/svg" xmlns:xlink="http://www.w3.org/1999/xlink" x="0px" y="0px"
	 viewBox="0 0 507 494.7" style="enable-background:new 0 0 507 494.7;" xml:space="preserve">
<style type="text/css">
	.gitstyle{fill:#EDA1A4;}
</style>
<g>
	<g>
		<path class="gitstyle" d="M467.7,115.7c0.5-26.5-4.6-53.3-8.8-79.7c-1.4-9.1-4.3-17.9-7.1-26.5c-2.1-6.5-8.5-10.6-14.3-9.2
			c-3.8,0.9-7.2,1.8-10.4,3c-34.4,12.9-66.2,31.9-96.7,53.8c-4.1,2.9-10.1,4-15,3.6c-11.9-1-23.6-4.4-35.4-5
			c-29.3-1.6-58.6-0.6-87.7,5.3c-4,0.8-9.4,0-12.7-2.5c-33.3-24.7-68-45.8-107-57.7C66.5-0.9,60.5,0.1,59,2.7
			c-0.9,1.6-1.7,3.3-2.2,5.1C52.7,24.8,47.7,41.7,45.2,59c-2.9,20.7-5.7,41.9-4.3,62.6c0.9,13-2.3,20.9-8.4,30
			C11.7,182.1,2.3,217.2,1.7,255.7c-0.5,32.9,3.3,65,12.1,96.5c13.4,48.2,39.3,84.4,78.3,108c32.1,19.4,67,26.8,102.8,28.3
			c32.2,1.3,64.5,0.2,96.8,0.4c32.3,0.2,64.2-3.1,95.2-14.6c31-11.5,57.8-30.2,78.6-59.5c30-42.3,39.4-92.2,41.3-145
			c1.5-40.4-5.7-78.3-26.4-111.3C472.1,145,467.4,133.5,467.7,115.7z M405.4,425c-13.9,13.7-30.8,20.2-48.2,25
			c-34.1,9.3-68.8,11.6-103.6,9.9c-34.4,1.7-68.4-0.7-101.9-9.8c-24.7-6.6-47.2-17.8-62.9-42.1c-25-38.6-31.4-112.1,9.9-152.1
			c10.5-10.2,22.3-16.7,36.2-17.7c15.3-1.1,30.6-3.3,46-3.1c38.6,0.5,77.2,2.7,115.8,3.1c17.6,0.1,35.4-4.6,52.9-3.3
			c15.9,1.1,32.6,4.5,47.1,11.8c24.1,12.2,37,37,40.9,66C443.5,355.7,435.8,394.9,405.4,425z"/>
		<ellipse class="gitstyle" cx="342.5" cy="340.9" rx="36.8" ry="56.3"/>
		<ellipse class="gitstyle" cx="166.9" cy="340.9" rx="36.8" ry="56.3"/>
	</g>
</g>
</svg>
