<?xml version="1.0" encoding="utf-8"?>
<!-- Generator: Adobe Illustrator 22.0.0, SVG Export Plug-In . SVG Version: 6.00 Build 0)  -->
<svg class="social-icon"version="1.1" id="instagram" xmlns="http://www.w3.org/2000/svg" xmlns:xlink="http://www.w3.org/1999/xlink" x="0px" y="0px"
	 viewBox="0 0 181.2 170.4" style="enable-background:new 0 0 181.2 170.4;" xml:space="preserve">
<style type="text/css">
	.st0{fill:#0E5B58;}
	.st1{fill:#EDA1A4;}
</style>
<g>
	<path class="st0" d="M141,0C118.7-0.1,96.4-1,74-0.5C48.2,0.2,28,1.7,12.8,22.4c-4,9.9-6,21.4-7,33.4c-0.2,3.2-0.4,6.4-0.6,9.8
		C4.4,85.9,5.8,107,5.3,123.7c2.2,11,6.4,20.8,14.3,28.3c26.1,24.9,79.3,17.1,114.1,15.8c16.7-6.1,30.7-11.1,38.1-30.3
		c5.9-15,4.9-34.2,5.4-50.3C178,54,179.4,8.2,141,0z"/>
	<path class="st1" d="M130.7,11.9c44.5,5.7,31.4,70.2,30.2,101.5c-0.7,17.2-3.8,30.5-21.5,36.4c-23.3,7.8-57.7,5.2-81.5,1.7
		c-15.9-2.3-28.4-7.1-32.8-23.6c-7-26.1-5-61.4-2-88c0.1-0.5,0.2-0.9,0.5-1.2C24.1-1,107.6,8.9,130.7,11.9z"/>
	<path class="st0" d="M149.2,36.1c0.1-11-13.6-14.4-20.9-7.7c-2,1.8-2.9,4.6-3,7.7c0.7,3.9,3.1,7.7,6.1,9.9
		C138.5,51,149.1,44.4,149.2,36.1z"/>
	<path class="st0" d="M128.9,57.4c-15.7-23.7-51.1-26.1-70.1-5c-13,14.3-13.9,38.2-4.1,55.2c0.6,0.2,1.1,0.5,1.5,1.1
		c15.9,17.7,43.2,24.1,62.8,8.1C136.5,102.3,141.7,76.7,128.9,57.4z"/>
	<path class="st1" d="M66.4,90c5.5,15.6,25.3,28,41,18.3c31.8-19.4-5.5-72.2-31.7-48.8C66.4,64.9,62.8,79.7,66.4,90z"/>
</g>
</svg>
