<?xml version="1.0" encoding="utf-8"?>
<!-- Generator: Adobe Illustrator 22.0.0, SVG Export Plug-In . SVG Version: 6.00 Build 0)  -->
<svg class="social-icon" version="1.1" id="linkedin" xmlns="http://www.w3.org/2000/svg" xmlns:xlink="http://www.w3.org/1999/xlink" x="0px" y="0px"
	 viewBox="0 0 555.3 555.3" style="enable-background:new 0 0 555.3 555.3;" xml:space="preserve">
<style type="text/css">
	.linkedin-y{fill:#EDA1A4;}
</style>
<g>
	<path class="linkedin-y" d="M118.7,0.1c-4.9-0.6-9.2,1.2-11.6,4.3C80.7,2.6,56.2,21.5,48.3,50.9c-10.4,37.9,23.9,77.7,62.4,75.9
		c31.2-1.8,57.5-28.2,64.9-57.5C183.5,31.3,154.2,3.2,118.7,0.1z"/>
	<path class="linkedin-y" d="M155.4,189.8c0-4.9-3.1-7.3-6.7-8c-1.2-6.1-6.1-11-13.5-10.4c-10.4,0.6-20.8,0.6-31.2,1.2
		c-11.6,0.6-26.3-0.6-37.3,4.3c-3.7,1.2-5.5,4.3-6.7,6.7c-1.2,1.2-1.8,2.4-2.4,4.3C42.8,262.7,43.4,337.9,44,413.8
		c0,26.9-12.9,97.3,11.6,117.5c1.8,1.8,4.3,2.4,6.7,2.4c0.6,1.2,1.8,3.1,3.7,3.7c11.6,8,31.2,4.3,44.1,2.4
		c7.3-1.2,17.1-1.8,24.5-6.1c6.1,2.4,14.1,0.6,15.9-6.7c9.8-49,1.2-103.4,0.6-153C149.3,311.6,153.5,251,155.4,189.8z"/>
	<path class="linkedin-y" d="M514,383.2c0.6-50.8-1.8-101.6-25.1-147.5c-47.1-93.6-190.9-72.8-273.6-62.4c-8,1.2-12.2,8-11.6,14.1
		c0,0,0,0,0,0.6c-16.5,112-16.5,230.7-14.7,343.9l0,0c0,9.2,8,14.1,15.3,14.1c1.8,1.2,4.3,2.4,7.3,3.1c25.7,3.1,50.8,3.1,76.5,6.1
		c8,1.2,13.5-5.5,14.7-12.2c5.5-1.8,10.4-6.7,8.6-13.5c-11.6-43.5-11.6-86.3-8.6-131c2.4-32.4,12.9-69.2,9.2-101.6
		c21.4-4.9,39.8-20.8,57.5,2.4c18.4,23.9,22.6,60,26.3,88.7c3.7,28.2,4.9,56.9,5.5,85.7c0.6,17.1-4.9,41.6,5.5,56.3
		c2.4,3.7,6.1,4.9,9.2,5.5c0.6,0,1.2,0.6,1.8,0.6c23.9,5.5,53.2,11,77.7,6.7c7.3-1.2,11-8,11-14.7
		C518.9,484.8,513.4,427.3,514,383.2z M433.2,507.5c3.7,1.8,7.3,2.4,11,1.2c3.7,0.6,7.3,0,11-1.8c0.6,1.2,1.2,2.4,2.4,4.3
		c-8.6,0-16.5,0.6-25.1,0.6C433.2,509.9,433.2,508.7,433.2,507.5z"/>
</g>
</svg>
