<?xml version="1.0" encoding="utf-8"?>
<!-- Generator: Adobe Illustrator 22.0.0, SVG Export Plug-In . SVG Version: 6.00 Build 0)  -->
<svg class="social-icon" version="1.1" id="reusme" xmlns="http://www.w3.org/2000/svg" xmlns:xlink="http://www.w3.org/1999/xlink" x="0px" y="0px"
	 viewBox="0 0 138.9 186.3" style="enable-background:new 0 0 138.9 186.3;" xml:space="preserve">
<style type="text/css">
	.resume-style{fill:#EDA1A4;stroke:#EDA1A4;stroke-width:10;stroke-miterlimit:10;}
</style>
<g>
	<g>
		<path class="resume-style" d="M127.2,58c-0.7,0.2-1.3,0.6-1.9,0.9c-9.8-0.7-20-0.4-29.9-0.3c-0.9-0.8-1.8-1.5-2.7-2.3
			c0.7-7.9,1.3-15.8,2-23.8c0.5-7,2.6-16.2-1-22.6c-0.7-1.2-2-1.6-3.2-1.3c-3.7-3-9.8-2.7-14.5-3c-8.2-0.5-16.5,0.1-24.7,0.9
			c-1,0.1-1.6,0.6-1.9,1.2c-2.2-0.4-4.8,0.8-4.9,3.7c-0.2,13.2-0.9,26.5-0.9,39.8c0,0-0.1,0-0.1,0c-1-0.4-2,0.9-0.9,1.5
			c0.3,0.2,0.7,0.4,1,0.6c0,2.5,0,5,0.1,7.6c-3.8-1.2-8.6-0.9-12-1c-6.1-0.1-12.3,0-18.4,0.6c-1.8,0.2-2.8,1.4-3.1,2.7
			c-0.1,0-0.1-0.1-0.2-0.1c-2.7-1.3-4.8,2.2-2.3,3.8c24,15.9,42.6,37.2,61.5,58.1c2.8,3.1,7.2-0.5,6.1-3.8c0.5-0.3,1-0.6,1.3-1.3
			c5.8-11.8,18.7-21.8,28.2-31c5.9-5.7,11.9-11.2,17.8-16.9c3.1-2.9,7.6-6,8.5-10.2C131.7,59.7,129.7,57.1,127.2,58z M71.1,11.7
			c5.2,0.2,11,2.5,16.3,2.4c-0.6,4.2-0.3,8.9-0.1,13.3c-3.4-2-6.8-3.9-10-6.2c-4.6-3.2-9.1-6.7-13.8-9.8
			C65.9,11.5,68.5,11.5,71.1,11.7z M61.3,11.4c-0.7,0.6-0.8,1.9,0.2,2.6c8.2,5.9,16.3,14.5,25.8,18.9c-0.1,2-0.2,4-0.2,6
			c-4-4.1-9.1-7.5-13.7-10.9c-6.9-5-13.8-10-20.7-14.8c0-0.6,0-1.2,0-1.8c0-0.1,0-0.2,0-0.3C55.5,11.3,58.4,11.3,61.3,11.4z
			 M52.6,16.7c5.5,4.2,11.1,8.2,16.5,12.3c6.1,4.6,11.4,10.3,17.7,14.5c-0.1,2.6-0.2,5.2-0.2,7.9c-10.8-8.5-22.5-16-34.4-22.3
			C52.5,25,52.6,20.8,52.6,16.7z M70.9,115.6C55.2,98,38.1,78.7,17.2,66.7c3.1,0,6.2,0,9.2,0c0.1,0.2,0.2,0.4,0.4,0.6
			c8.8,8.1,17.4,16.3,26.1,24.6c6.3,6,13.6,13.3,22,16.6C73.3,110.8,71.9,113.2,70.9,115.6z M77.1,105.5c-7-6.9-15.8-12.5-23.2-19.2
			c-7.3-6.6-14.4-13.5-22.2-19.5c4.1,0.3,8.7,1.3,12.8,0.8c4.6,8.5,29.9,29.4,36.3,33.6C79.6,102.7,78.3,104.1,77.1,105.5z
			 M83.8,98.1c-5-4.1-30.6-24.2-37.3-30.8c0,0,0.1,0,0.1,0c1.7-0.5,2.2-2.1,1.6-3.4c1.3-0.3,2.5-1.3,2.6-3.1c0.1-1,0.1-1.9,0.2-2.9
			c7.9,6.1,14.9,13.8,21.8,20.5c3.6,3.5,10.5,12.3,16.9,14C87.7,94.3,85.7,96.2,83.8,98.1z M97.2,85.2c-1.4,1.3-2.8,2.7-4.3,4.1
			c-16.2-8.2-26.4-24.7-41.8-34.3c0.2-3.2,0.4-6.4,0.5-9.5c8,7.1,16,14.2,24,21.2c6.2,5.5,14.4,15.2,23.2,16.9c0,0,0,0,0,0
			C98.3,84.1,97.7,84.6,97.2,85.2z M101.1,81.4c-0.1-0.4-0.4-0.8-0.9-1.1c-17.8-10.6-31.7-26-48.5-37.9c0.2-3.2,0.3-6.4,0.4-9.6
			c12.4,7.5,24,15.7,34.7,24.9c0,0.6,0,1.3,0.1,1.9c0.1,1.3,0.9,2.1,1.9,2.4c0.3,0.5,0.7,1,1.5,1.2c1.1,0.2,2.2,0.4,3.2,0.6
			c4.1,3.8,8.1,7.8,12,12c0.2,0.3,0.5,0.4,0.8,0.6C104.7,78,102.9,79.7,101.1,81.4z M116.9,66.4c-2.3,2.2-4.6,4.4-7,6.6
			c-0.1-0.3-0.2-0.6-0.5-0.8c-2.2-2.5-4.6-4.9-7-7.2c5,0.6,10,0.9,14.9,0.9C117.2,66.1,117,66.3,116.9,66.4z"/>
		<path class="resume-style" d="M126.9,147c-3.3-3-4.9-2.5-9.9-3.1c-11.5-1.3-23.1-2.4-34.7-3.3c-2.9-0.2-5.9-0.4-8.8-0.5
			c-0.2-0.2-0.4-0.4-0.6-0.5c-0.9-0.8-2-0.3-2.4,0.4c-17.6-0.6-35.6,0.2-52.8,3.5c-1,0.2-1.5,0.9-1.7,1.6c-1.1-0.8-2.8-1-3.7,0.1
			C9.3,149,9.1,154,9,158.7c-1.3,0-2.5,1.5-1.2,2.5c0.4,0.3,0.8,0.7,1.2,1c-0.2,6.7,0.3,13.4,0.3,20.1c0,2.4,2.4,4,4.8,3.5
			c2.1-0.5,4.2-0.7,6.2-0.9c0.6,1,1.7,1.7,3.1,1.4c32.6-7.1,65.6-4.5,98.6-4.4c1.1,0.4,2.2,0.3,2.8-0.7c1.4-1.1,1.7-3.1,0.8-4.6
			c0.6-4.8,1.1-9.6,1.7-14.4c0.3-2.7,1-6.8-0.3-9.7C128.4,151,128.6,148.5,126.9,147z M117.2,150.7c0.4,0.8,1,1.5,1.8,1.8
			c0.2,0.1,0.3,0.1,0.4,0.2c0,0.2,0,0.3,0,0.5c0.7,4.1,0.6,8.2,0.4,12.3c-4.1-4.1-9-7.6-13.3-11.4c-1.8-1.6-3.6-3.1-5.4-4.6
			C106.4,149.4,112.8,149.6,117.2,150.7z M28.3,179.6c-0.4-0.4-0.9-0.7-1.6-0.7c-3.4-0.1-6.7-0.5-10-0.5c-0.1-3.1-0.1-6.3-0.2-9.4
			c1.4,1.2,2.7,2.5,4.1,3.7c2.5,2.2,5.4,5,8.6,6.8C28.9,179.5,28.6,179.5,28.3,179.6z M34.3,178.6c-3.2-3.7-8.4-6.2-12.3-9.4
			c-1.9-1.6-3.7-3.2-5.6-4.8c0-0.5,0-0.9,0-1.4c0-3.5,0.8-7.1,1-10.6c3.9,4.2,8,8.3,12.3,12.1c4,3.6,10.3,9.9,16.1,10
			c1.2,0,1.7-1.4,1-2.2c-1.7-1.9-4.2-2.9-6.4-4.2c-3.4-2.1-6.5-4.6-9.6-7.1c-4.8-4-9.3-8.3-13.6-12.8c0-0.1,0-0.1,0-0.2
			c0.3,0.2,0.7,0.3,1.2,0.2c2-0.2,4-0.3,6-0.4c0,0,0.1,0.1,0.1,0.1c11.4,9.3,23.9,20.8,37.5,27.7C52.7,176.1,43.5,177,34.3,178.6z
			 M68.2,175.2c-0.1-0.2-0.2-0.4-0.5-0.6c-6.2-4.7-13.3-8.4-19.8-12.7c-6.9-4.6-13.6-9.6-20.3-14.4c4.4-0.3,8.8-0.5,13.2-0.6
			c6.6,5.7,13.3,11.1,20.2,16.4c4.7,3.7,9.7,8.3,15,11.7C73.4,175,70.8,175.1,68.2,175.2z M83.2,174.8c-0.1-0.1-0.1-0.2-0.2-0.4
			c-4.7-5-11.6-8.7-17.3-12.7c-6.7-4.8-13.4-9.8-19.9-15c3.7-0.1,7.3,0,11,0c7.7,5.3,15.3,10.7,22.7,16.5c4.7,3.6,9,7.7,13.5,11.5
			C89.7,174.8,86.4,174.8,83.2,174.8z M100.2,174.8c-9.9-10.9-23.9-19.9-37-27.8c2.5,0.1,4.9,0.1,7.4,0.3c2.4,0.1,4.8,0.3,7.1,0.5
			c5.5,4.8,11.2,9.3,16.9,13.8c5.1,4.1,9.6,8.8,14.3,13.3C106,174.8,103.1,174.8,100.2,174.8z M116.4,174.9
			c-4.2-5.7-11.2-10.3-16.6-14.5c-5.4-4.2-10.9-8.2-16.3-12.3c3.6,0.3,7.1,0.6,10.7,0.9c0.6,0.1,1.3,0.1,2.1,0.1
			c3.2,2.7,6.4,5.4,9.4,8.3c4.2,4.1,8.2,8.9,13.2,12c0.3,0.2,0.6,0.3,0.9,0.3c-0.1,1.7-0.1,3.4,0,5.1
			C118.7,174.9,117.5,174.9,116.4,174.9z"/>
	</g>
</g>
</svg>
