<?xml version="1.0" encoding="utf-8"?>
<!-- Generator: Adobe Illustrator 22.0.0, SVG Export Plug-In . SVG Version: 6.00 Build 0)  -->
<svg version="1.1" id="Layer_1" xmlns="http://www.w3.org/2000/svg" xmlns:xlink="http://www.w3.org/1999/xlink" x="0px" y="0px"
	 viewBox="0 0 1366 768" style="enable-background:new 0 0 1366 768;" xml:space="preserve">
<style type="text/css">
	.st0{fill:#FFFFFF;stroke:#000000;stroke-miterlimit:10;}
</style>
<path class="st0" d="M164.5,102.5c0,0,14-23,27-24s76,0,76,0l8,46l28,47l-39,39l-106,12L164.5,102.5z"/>
<path class="st0" d="M361.5,71.5c-1,30,15,79,15,79l26,62l55,10l114-21l34-147L361.5,71.5z"/>
<path class="st0" d="M695.5,147.5v-77l138-25l4,110l-117,52c0,0,1-28-7-30S695.5,147.5,695.5,147.5z"/>
<path class="st0" d="M917.5,155.5c0,0-1-65,11-64s63-37,63-37s53,11,54,18s8,66,8,66s32,32,0,45s-80,17-80,17l-36-21L917.5,155.5z"
	/>
<path class="st0" d="M162.4,310.5c0,0,112.1-44,113.6-29s41.9,41,41.9,41l6,22c0,0-3,29,0,45s-43.4,65-43.4,65h-83.7l-67.3-51l9-63
	L162.4,310.5z"/>
<path class="st0" d="M393.5,284.5h65c0,0,111,14,105,28s-62,101-62,101s-21,73-32,64s-32-30-32-30l-12-54l-41-109H393.5z"/>
<path class="st0" d="M669.5,278.5h203c0,0-13,55-12,73s-20,90-20,90s-43,8-53,0s-50-31-50-31l-68,22l-21-124L669.5,278.5z"/>
<path class="st0" d="M959,312v69.3l89.4,35.2c0,0,25.1-38.2,22.1-55.2c-3-17.1,0-45.2,0-45.2L959,312z"/>
<path class="st0" d="M93.5,720.5c6-11,5-62,5-62l40-89l48-12l24,21l43,122l-9,40c0,0-21,3-25-5s-16-43-16-43l-41,42l-69-1V720.5z"/>
<path class="st0" d="M412.5,584.5c33,16,66,44,65,65s9,33-19,50s-61,70-88,25s-39-82-29-104S412.5,584.5,412.5,584.5z"/>
<path class="st0" d="M578.5,584.5c0,0,67-55,97-56s107,36,107,36l26,163l-149,29l-34-31c0,0-74-45-68-76S578.5,584.5,578.5,584.5z"
	/>
<path class="st0" d="M958.7,549.5c63.5,18.2,141.6,54.5,121.6,96.2c-20,41.7,61.7,85.3-59.9,50.8C898.8,662,864.3,658.4,862.5,613
	c-1.8-45.4,70.8-49,70.8-49L958.7,549.5z"/>
</svg>
