<?xml version="1.0" encoding="utf-8"?>
<!-- Generator: Adobe Illustrator 22.0.0, SVG Export Plug-In . SVG Version: 6.00 Build 0)  -->
<svg  class="social-icon" version="1.1" id="twitter-i" xmlns="http://www.w3.org/2000/svg" xmlns:xlink="http://www.w3.org/1999/xlink" x="0px" y="0px"
	 viewBox="0 0 186.6 186.6" style="enable-background:new 0 0 186.6 186.6;" xml:space="preserve">
<style type="text/css">
	.twi{fill:#EDA1A4;}
</style>
<g>
	<path class="twi" d="M152.7,151.1c-0.2-2.1-2.4-2.9-3.9-2.2c-0.9-1.1-2.5-1.6-3.9-0.4c-12.8,10.8-34.4,11.9-41.7-6
		c-4-10-2.8-23.4-2.9-34c-0.1-8.8,0.3-17.7,0.1-26.6c12.8-0.6,25.5-1.4,38-1.5c1,0,1.7-0.4,2.1-1c0.9,0,1.8-0.6,2.1-1.9
		c1.1-5.1,1.3-10.3,1.4-15.5c0-4.2,0.6-9.7-1.3-13.5c-0.5-0.9-1.6-1.2-2.5-0.9c-0.3-0.4-0.6-0.8-1.2-0.9c-6.4-1.9-13.8-1.1-20.4-1.2
		c-5.5-0.1-11-0.4-16.5-0.4c2.2-13.1-1.5-26.3,0.5-39.5c0.1-1-0.2-1.7-0.8-2.3c0.4-1.4-0.5-3.3-2.2-3.2c-7.9,0.5-15.6,1.6-23.4,0.4
		c-1.5-0.2-2.5,0.9-2.6,2.1c-0.9,0.1-1.8,0.7-2,1.7c-1.9,9.4-4,18.6-8.7,27C57,41.6,47.3,46.1,36.2,48.7c-2,0.5-2.2,3.1-1,4.3
		c0,0,0,0,0,0C33,59.7,35,66.9,33.8,73.7c-0.2,1,0.2,1.8,0.9,2.3c-0.4,1.2,0.1,2.7,1.5,3c7.8,1.7,15.7,2.7,23.6,3.2
		c-2.3,14.3-3.2,28.8-3.2,43.2c0,15.1,1.6,32.3,11.6,44.4c19.6,23.6,56,19.6,80,5.3c0.4-0.2,0.7-0.5,0.9-0.8c0.3-0.2,0.5-0.6,0.6-1
		C151,166,153.5,158.6,152.7,151.1z"/>
</g>
</svg>
